# xmcd CD database file
#
# Track frame offsets:
#	150
#	22498
#	41832
#	62966
#	78260
#	93838
#	109889
#	125286
#	141289
#	164860
#	175757
#	187428
#	203274
#	220729
#	246219
#	277165
#
# Disc length: 3892 seconds
#
# Revision: 1
# Processed by: cddbd v1.5.2PL0 Copyright (c) Steve Scherf et al.
# Submitted via: CDex 1.51
#
DISCID=f80f3210
DTITLE=BB King - How Blue Can You Get
DYEAR=1996
DGENRE=Blues
TTITLE0=The Thrill Is Gone
TTITLE1=Sweet Sixteen
TTITLE2=Everyday (I Have The Blues)
TTITLE3=How Blue Can You Get
TTITLE4=The Letter
TTITLE5=The Other Night Blues
TTITLE6=Walkin and Cryin
TTITLE7=Its My Own Fault
TTITLE8=You've Done Lost Your Good Thing Now
TTITLE9=Catfish Blues
TTITLE10=Payin' The Cost To Be The Boss
TTITLE11=Long Nights
TTITLE12=That Evil Child
TTITLE13=Guess Who
TTITLE14=Outside Help
TTITLE15=B.B's Boogie
EXTD=YEAR: 1996
EXTT0=
EXTT1=
EXTT2=
EXTT3=
EXTT4=
EXTT5=
EXTT6=
EXTT7=
EXTT8=
EXTT9=
EXTT10=
EXTT11=
EXTT12=
EXTT13=
EXTT14=
EXTT15=
PLAYORDER=
